<svg width="513" height="512" viewBox="0 0 513 512" fill="none" xmlns="http://www.w3.org/2000/svg">
<path d="M0.388672 0H512.389V512H0.388672V0Z" fill="#2F3035"/>
<path d="M254.98 186.668C272.327 186.781 291.399 195.501 298.671 212.059C305.717 204.647 313.981 201.031 322.383 200.363C332.563 199.554 342.583 203.094 350.553 208.714C358.494 214.313 364.793 222.255 367.18 230.748C369.025 237.313 368.49 244.165 364.686 250.146C369.959 252.004 374.359 255.771 377.601 260.432C382.243 267.107 384.745 275.883 384.348 284.625C383.948 293.416 380.599 302.361 373.309 309.093C366.014 315.83 355.154 320 340.366 320H165.316L165.247 319.998C140.896 319.109 127.99 301.485 128.398 283.745C128.601 274.951 132.083 266.179 138.957 259.614C144.849 253.987 153.052 250.149 163.41 249.149C159.621 236.298 163.421 222.796 172.954 215.113C183.017 207.003 198.189 206.242 215.188 217.129C216.661 207.814 221.066 200.6 227.305 195.533C234.929 189.341 244.971 186.603 254.98 186.668ZM254.93 194.461C246.225 194.404 238.033 196.801 232.102 201.618C226.285 206.342 222.325 213.638 222.325 224.212V232.1L216.154 227.307C198.621 213.688 185.201 215.193 177.728 221.216C169.959 227.478 166.981 239.739 172.363 251.097L175.01 256.683H168.903C157.574 256.683 149.486 260.258 144.218 265.289C138.926 270.342 136.231 277.095 136.074 283.927C135.763 297.427 145.389 311.447 165.462 312.207H340.366C353.729 312.207 362.583 308.463 368.143 303.329C373.709 298.188 376.358 291.304 376.678 284.265C377 277.178 374.944 270.125 371.329 264.927C367.727 259.748 362.81 256.683 357.32 256.683H346.959L354.819 249.831C360.358 245.002 361.521 239.02 359.797 232.886C358.006 226.515 353.027 219.946 346.173 215.114C339.349 210.303 331.055 207.491 322.982 208.132C315.045 208.763 306.962 212.751 300.309 222.249L295.218 229.518L293.423 220.787C290.1 204.627 272.667 194.577 254.93 194.461Z" fill="#BFC5D5"/>
<path d="M317.662 246.239H323.937V267.015L335.639 256.394H345.243L332.163 268.096L346.07 281.41H336.657L327.35 272.4L323.937 275.452V281.41H317.662V246.239Z" fill="#BFC5D5"/>
<path d="M295.85 256.394H302.125V259.998C303.51 258.966 304.973 258.076 306.513 257.327C308.054 256.578 309.587 256.005 311.113 255.61L312.958 261.355C310.541 261.595 308.414 262.139 306.577 262.987C304.753 263.821 303.269 265.001 302.125 266.528V281.41H295.85V256.394Z" fill="#BFC5D5"/>
<path d="M258.576 273.523C258.576 272.322 258.838 271.227 259.361 270.237C259.883 269.248 260.668 268.4 261.714 267.693C262.76 266.973 264.06 266.421 265.614 266.04C267.183 265.644 269.006 265.446 271.084 265.446C272.624 265.446 274.243 265.559 275.939 265.785C277.649 266.012 279.408 266.358 281.217 266.824C281.147 266.033 280.907 265.305 280.497 264.641C280.087 263.962 279.514 263.383 278.779 262.902C278.059 262.408 277.182 262.026 276.151 261.758C275.133 261.489 273.974 261.355 272.674 261.355C271.967 261.355 271.19 261.397 270.342 261.482C269.494 261.567 268.618 261.694 267.713 261.864C266.809 262.033 265.911 262.245 265.021 262.5C264.145 262.754 263.325 263.058 262.562 263.411L260.654 258.26C261.601 257.92 262.611 257.609 263.685 257.327C264.774 257.044 265.883 256.804 267.014 256.606C268.144 256.394 269.275 256.231 270.406 256.118C271.536 256.005 272.632 255.949 273.692 255.949C278.37 255.949 281.846 257.143 284.122 259.532C286.397 261.92 287.535 265.581 287.535 270.513V281.41H281.26V279.056C280.61 279.438 279.896 279.798 279.119 280.138C278.355 280.477 277.522 280.774 276.617 281.028C275.713 281.282 274.737 281.48 273.692 281.622C272.66 281.777 271.565 281.855 270.406 281.855C268.455 281.855 266.738 281.643 265.254 281.219C263.784 280.795 262.555 280.208 261.565 279.459C260.576 278.71 259.827 277.834 259.318 276.831C258.824 275.813 258.576 274.711 258.576 273.523ZM265.19 273.311C265.19 273.721 265.296 274.117 265.508 274.499C265.72 274.866 266.06 275.198 266.526 275.495C266.992 275.778 267.586 276.011 268.307 276.195C269.042 276.364 269.925 276.449 270.957 276.449C272.059 276.449 273.126 276.35 274.158 276.152C275.19 275.954 276.151 275.693 277.041 275.368C277.931 275.043 278.737 274.668 279.458 274.244C280.179 273.82 280.779 273.382 281.26 272.93V271.827C280.299 271.559 279.345 271.333 278.398 271.149C277.465 270.965 276.568 270.824 275.706 270.725C274.858 270.612 274.052 270.534 273.289 270.492C272.54 270.449 271.883 270.428 271.317 270.428C270.144 270.428 269.169 270.506 268.392 270.661C267.614 270.817 266.985 271.029 266.505 271.297C266.024 271.552 265.685 271.856 265.487 272.209C265.289 272.562 265.19 272.93 265.19 273.311Z" fill="#BFC5D5"/>
<path d="M222.279 268.817C222.279 267.121 222.625 265.503 223.317 263.962C224.01 262.408 225.006 261.037 226.307 259.85C227.607 258.662 229.197 257.715 231.076 257.009C232.97 256.302 235.119 255.949 237.521 255.949C239.91 255.949 242.058 256.309 243.966 257.03C245.888 257.737 247.513 258.712 248.842 259.956C250.184 261.199 251.209 262.662 251.916 264.344C252.637 266.026 252.997 267.828 252.997 269.75C252.997 269.99 252.99 270.252 252.976 270.534C252.976 270.803 252.962 271.05 252.933 271.276H229.274C229.543 272.025 229.974 272.711 230.568 273.333C231.175 273.954 231.931 274.491 232.836 274.944C233.741 275.396 234.786 275.749 235.974 276.004C237.161 276.244 238.475 276.364 239.917 276.364C241.358 276.364 242.793 276.216 244.22 275.919C245.648 275.608 247.012 275.219 248.312 274.753L250.432 279.544C249.612 279.926 248.778 280.265 247.93 280.562C247.096 280.844 246.22 281.085 245.301 281.282C244.397 281.466 243.443 281.608 242.439 281.706C241.45 281.805 240.404 281.855 239.302 281.855C236.489 281.855 234.023 281.516 231.903 280.837C229.783 280.159 228.01 279.233 226.582 278.06C225.155 276.887 224.081 275.509 223.36 273.926C222.639 272.343 222.279 270.64 222.279 268.817ZM246.34 266.379C246.114 265.687 245.761 265.043 245.28 264.45C244.814 263.842 244.227 263.319 243.521 262.881C242.814 262.429 241.994 262.076 241.061 261.821C240.129 261.567 239.104 261.44 237.988 261.44C236.8 261.44 235.719 261.574 234.744 261.842C233.769 262.111 232.914 262.471 232.179 262.924C231.444 263.376 230.829 263.899 230.334 264.492C229.854 265.086 229.501 265.715 229.274 266.379H246.34Z" fill="#BFC5D5"/>
<path d="M177.154 256.373H184.425L190.933 271.424L192.841 275.643L195.173 270.174L188.983 256.373H195.088L198.12 263.792L201.152 256.373H207.257L201.046 270.174L203.399 275.643L205.307 271.424L211.815 256.373H219.087L207.236 281.409H200.41L198.12 276.576L195.83 281.409H189.004L177.154 256.373Z" fill="#BFC5D5"/>
</svg>
