<svg width="13" height="8" viewBox="0 0 13 8" fill="none" xmlns="http://www.w3.org/2000/svg">
<path id="Union" d="M1.21249 2.22101C0.84714 1.85567 0.847139 1.26332 1.21249 0.897973C1.57783 0.532625 2.17018 0.532625 2.53553 0.897973L6.7497 5.11214L10.9639 0.897974C11.3292 0.532626 11.9216 0.532626 12.2869 0.897973C12.6523 1.26332 12.6523 1.85567 12.2869 2.22101L7.49539 7.01254C7.47132 7.0436 7.44504 7.07349 7.41652 7.10201C7.23252 7.28601 6.99095 7.37734 6.74979 7.376C6.50857 7.37739 6.26692 7.28605 6.08287 7.10201C6.05436 7.07349 6.02807 7.04359 6.004 7.01253L1.21249 2.22101Z" fill="white"/>
</svg>
