<svg width="22" height="20" viewBox="0 0 22 20" fill="none" xmlns="http://www.w3.org/2000/svg">
<path id="Icon" d="M15.7639 4.5C16.3132 3.88625 17.1115 3.5 18 3.5C19.6569 3.5 21 4.84315 21 6.5C21 8.15685 19.6569 9.5 18 9.5H12M5.7639 2C6.31322 1.38625 7.1115 1 8 1C9.65686 1 11 2.34315 11 4C11 5.65685 9.65686 7 8 7H1M9.7639 18C10.3132 18.6137 11.1115 19 12 19C13.6569 19 15 17.6569 15 16C15 14.3431 13.6569 13 12 13H1" stroke="#FAC17A" stroke-width="2" stroke-linecap="round" stroke-linejoin="round"/>
</svg>
